<svg width="48" height="36" viewBox="0 0 48 36" fill="none" xmlns="http://www.w3.org/2000/svg">
<path d="M45.7097 5.38212L36.4133 0.075274H36.3945L36.3004 0.0376373H36.2628L36.1687 0H29.6387C29.2394 0 28.8564 0.158613 28.5741 0.440947C28.2918 0.72328 28.1332 1.10621 28.1332 1.50549C28.1332 2.70333 27.6573 3.85211 26.8103 4.69911C25.9633 5.54611 24.8145 6.02195 23.6167 6.02195C22.4189 6.02195 21.2701 5.54611 20.4231 4.69911C19.5761 3.85211 19.1002 2.70333 19.1002 1.50549C19.1002 1.10621 18.9416 0.72328 18.6593 0.440947C18.377 0.158613 17.994 0 17.5948 0H11.0647L10.9706 0.0376373H10.933L10.8389 0.075274H10.8201L1.52367 5.38212C0.853367 5.75969 0.35425 6.38094 0.129972 7.11685C-0.0943059 7.85276 -0.0265098 8.64679 0.319281 9.33402L3.7819 16.2781C4.03298 16.7764 4.41756 17.195 4.89275 17.4875C5.36793 17.7799 5.91501 17.9345 6.47296 17.9341H10.0673V32.989C10.0673 33.7876 10.3845 34.5534 10.9492 35.1181C11.5139 35.6828 12.2797 36 13.0783 36H34.1551C34.9537 36 35.7195 35.6828 36.2842 35.1181C36.8489 34.5534 37.1661 33.7876 37.1661 32.989V17.9341H40.7604C41.3184 17.9345 41.8655 17.7799 42.3407 17.4875C42.8158 17.195 43.2004 16.7764 43.4515 16.2781L46.9141 9.33402C47.2599 8.64679 47.3277 7.85276 47.1034 7.11685C46.8792 6.38094 46.38 5.75969 45.7097 5.38212ZM6.47296 14.9231L3.01034 7.9979L10.0673 3.97072V14.9231H6.47296ZM34.1551 32.989H13.0783V2.87925H16.2398C16.5853 4.58088 17.5085 6.11074 18.853 7.2096C20.1974 8.30846 21.8803 8.90874 23.6167 8.90874C25.3531 8.90874 27.036 8.30846 28.3805 7.2096C29.7249 6.11074 30.6481 4.58088 30.9936 2.87925H34.1551V32.989ZM40.7604 14.9231H37.1661V3.97072L44.2231 7.9979L40.7604 14.9231Z" fill="#CC5336"/>
</svg>
