<svg width="45" height="45" viewBox="0 0 45 45" fill="none" xmlns="http://www.w3.org/2000/svg">
<path d="M22.5 0C10.0736 0 0 10.0736 0 22.5C0 34.9264 10.0736 45 22.5 45C34.9264 45 45 34.9264 45 22.5C45 10.0736 34.9264 0 22.5 0ZM14.9107 40.4688C10.1483 38.452 6.38076 34.6282 4.4348 29.8365C2.48885 25.0448 2.52352 19.6768 4.53122 14.9107C4.62686 14.6854 4.72687 14.4621 4.83122 14.2408L9.75 18.6681V24.5963L16.9781 32.25H20.625V36.8482L16.2139 40.9652C15.775 40.8156 15.3406 40.6501 14.9107 40.4688ZM36.2886 36.2886C34.4801 38.1024 32.3309 39.5408 29.9645 40.521C27.5982 41.5012 25.0613 42.0038 22.5 42C21.5677 42.0001 20.6365 41.9341 19.7136 41.8025L23.625 38.1518V29.25H18.2719L12.75 23.4037V17.3319L6.34687 11.5695C8.46542 8.449 11.4386 6.00535 14.9103 4.53122C17.881 3.27454 21.1173 2.77519 24.3287 3.07801C27.54 3.38082 30.6259 4.47631 33.3094 6.26616L29.0378 11.7582L30.4899 15.3887L29.507 16.3717L22.1365 14.8976L18 18V26.25H34.5L39.2198 32.5431C38.3991 33.9064 37.4147 35.1643 36.2886 36.2886ZM42 22.5C42.0044 24.899 41.5634 27.2779 40.6994 29.516L36 23.25H21V19.5L22.8635 18.1024L30.493 19.6283L34.0101 16.1113L32.4622 12.2418L35.6685 8.11894C35.8786 8.31169 36.0851 8.50919 36.2882 8.71144C38.1021 10.5198 39.5406 12.669 40.5208 15.0354C41.5011 17.4018 42.0038 19.9386 42 22.5Z" fill="#CC5336"/>
</svg>
