<svg width="19" height="20" viewBox="0 0 19 20" fill="none" xmlns="http://www.w3.org/2000/svg">
<path d="M18.3801 10.3028C18.7791 9.77552 19 9.12952 19 8.45739C19 7.39102 18.4039 6.38164 17.4444 5.81877C17.1974 5.67388 16.9161 5.59763 16.6298 5.59789H10.9345L11.077 2.67902C11.1103 1.97364 10.8609 1.30389 10.3764 0.793268C10.1386 0.541584 9.85174 0.341336 9.53352 0.204898C9.2153 0.0684591 8.87248 -0.00127066 8.52625 1.75279e-05C7.29125 1.75279e-05 6.19875 0.831268 5.871 2.02114L3.83087 9.40739H0.76C0.339625 9.40739 0 9.74702 0 10.1674V18.8124C0 19.2328 0.339625 19.5724 0.76 19.5724H15.0409C15.2594 19.5724 15.4731 19.5296 15.6702 19.4441C16.8007 18.962 17.5299 17.8576 17.5299 16.6321C17.5299 16.3329 17.4871 16.0384 17.4016 15.7534C17.8006 15.2261 18.0215 14.5801 18.0215 13.908C18.0215 13.6088 17.9788 13.3143 17.8933 13.0293C18.2923 12.502 18.5131 11.856 18.5131 11.1839C18.5084 10.8846 18.4656 10.5878 18.3801 10.3028ZM1.71 17.8624V11.1174H3.63375V17.8624H1.71ZM16.8245 9.47864L16.3044 9.92989L16.6345 10.5331C16.7433 10.7319 16.7997 10.955 16.7984 11.1815C16.7984 11.5734 16.6274 11.9463 16.3329 12.2028L15.8127 12.654L16.1429 13.2573C16.2516 13.456 16.308 13.6791 16.3067 13.9056C16.3068 14.2975 16.1357 14.6704 15.8413 14.9269L15.3211 15.3781L15.6513 15.9814C15.76 16.1801 15.8164 16.4032 15.8151 16.6298C15.8151 17.1618 15.5016 17.6415 15.0171 17.86H5.15375V11.0414L7.51688 2.47952C7.57781 2.26007 7.70862 2.06646 7.88947 1.92803C8.07033 1.78961 8.29138 1.7139 8.51913 1.71239C8.69963 1.71239 8.87775 1.76464 9.02025 1.87152C9.25537 2.04727 9.38125 2.31327 9.367 2.59589L9.139 7.30789H16.606C17.0288 7.56677 17.29 8.00377 17.29 8.45739C17.29 8.84927 17.119 9.21977 16.8245 9.47864Z" fill="#808080"/>
</svg>
