<svg width="914" height="49" viewBox="0 0 914 49" fill="none" xmlns="http://www.w3.org/2000/svg">
<path fill-rule="evenodd" clip-rule="evenodd" d="M44.2098 24.1055C44.2098 35.2088 35.2088 44.2098 24.1055 44.2098C13.0022 44.2098 4.00118 35.2088 4.00118 24.1055C4.00118 13.0022 13.0022 4.00118 24.1055 4.00118C35.2088 4.00118 44.2098 13.0022 44.2098 24.1055ZM24.1055 48.211C36.9239 48.211 47.4055 38.2057 48.1667 25.5786L445.996 25.5786C446.757 38.2057 457.239 48.211 470.057 48.211C483.367 48.211 494.157 37.4244 494.163 24.1162L865.789 25.1099L865.791 24.4138C865.956 37.5848 876.684 48.211 889.894 48.211C903.208 48.211 914 37.4186 914 24.1055C914 10.7924 903.208 0 889.894 0C876.728 0 866.028 10.5552 865.793 23.6652L865.797 22.1091L493.979 21.1149C492.506 9.21297 482.358 0 470.057 0C457.257 0 446.787 9.97645 445.999 22.5777L48.1634 22.5777C47.3752 9.97641 36.9054 0 24.1055 0C10.7924 0 0 10.7924 0 24.1055C0 37.4186 10.7924 48.211 24.1055 48.211ZM490.147 23.339C489.744 12.5909 480.904 4.00118 470.057 4.00118C458.954 4.00118 449.953 13.0022 449.953 24.1055C449.953 35.2088 458.954 44.2098 470.057 44.2098C481.16 44.2098 490.161 35.2088 490.161 24.1055L490.145 24.1055L490.147 23.339ZM25.6236 29.066V17.4262H23.9129L21.0086 19.3245V21.0068L23.7935 19.1881H23.8618V29.066H25.6236ZM466.155 27.7929V29.066H473.816V27.5599H468.576V27.4746L470.889 25.0535C471.598 24.3335 472.151 23.7216 472.549 23.2177C472.947 22.71 473.225 22.2496 473.384 21.8366C473.547 21.4236 473.629 21.0011 473.629 20.5692C473.629 19.944 473.471 19.3832 473.157 18.8869C472.842 18.3867 472.405 17.9927 471.844 17.7047C471.287 17.4129 470.643 17.2671 469.912 17.2671C469.188 17.2671 468.542 17.4148 467.974 17.7104C467.405 18.0021 466.958 18.4132 466.632 18.9437C466.306 19.4742 466.143 20.0937 466.143 20.8022H467.82C467.82 20.3854 467.903 20.0217 468.07 19.711C468.237 19.4003 468.476 19.1597 468.786 18.9892C469.097 18.8187 469.461 18.7334 469.878 18.7334C470.272 18.7334 470.626 18.8111 470.94 18.9664C471.255 19.118 471.503 19.3359 471.685 19.62C471.867 19.9004 471.958 20.2339 471.958 20.6203C471.958 20.9613 471.889 21.2834 471.753 21.5865C471.617 21.8896 471.41 22.2098 471.134 22.547C470.861 22.8805 470.514 23.2688 470.094 23.7122L466.155 27.7929ZM889.894 44.2098C900.998 44.2098 909.999 35.2088 909.999 24.1055C909.999 13.0022 900.998 4.00118 889.894 4.00118C878.791 4.00118 869.79 13.0022 869.79 24.1055C869.79 35.2088 878.791 44.2098 889.894 44.2098ZM887.953 28.8216C888.567 29.0906 889.264 29.2251 890.045 29.2251C890.84 29.2251 891.547 29.0812 892.164 28.7932C892.782 28.5014 893.269 28.1017 893.625 27.594C893.985 27.0863 894.163 26.5122 894.159 25.8719C894.163 25.1368 893.951 24.5211 893.523 24.0247C893.098 23.5284 892.5 23.2215 891.727 23.104V23.0131C892.333 22.8577 892.818 22.5527 893.182 22.098C893.549 21.6434 893.731 21.0902 893.727 20.4385C893.731 19.8663 893.583 19.3396 893.284 18.8584C892.989 18.3772 892.568 17.9927 892.022 17.7047C891.481 17.4129 890.836 17.2671 890.09 17.2671C889.378 17.2671 888.73 17.4016 888.146 17.6706C887.563 17.9396 887.093 18.3128 886.737 18.7902C886.384 19.2677 886.199 19.8209 886.18 20.4498H887.879C887.894 20.0937 888.004 19.7886 888.209 19.5348C888.413 19.2771 888.679 19.0801 889.004 18.9437C889.334 18.8035 889.688 18.7334 890.067 18.7334C890.465 18.7334 890.81 18.8092 891.102 18.9607C891.397 19.1123 891.624 19.3226 891.784 19.5916C891.947 19.8568 892.028 20.1694 892.028 20.5294C892.028 20.9045 891.935 21.2323 891.75 21.5126C891.564 21.7892 891.306 22.0052 890.977 22.1606C890.651 22.3159 890.272 22.3936 889.84 22.3936H888.857V23.8258H889.84C890.378 23.8258 890.836 23.9111 891.215 24.0816C891.598 24.2521 891.888 24.487 892.085 24.7863C892.286 25.0819 892.386 25.4248 892.386 25.815C892.386 26.1902 892.286 26.5217 892.085 26.8097C891.884 27.0938 891.606 27.3155 891.249 27.4746C890.897 27.6338 890.492 27.7133 890.033 27.7133C889.616 27.7133 889.237 27.6451 888.896 27.5087C888.555 27.3723 888.279 27.1791 888.067 26.929C887.858 26.6751 887.743 26.3758 887.72 26.031H885.935C885.962 26.6638 886.151 27.2208 886.504 27.702C886.86 28.1794 887.343 28.5526 887.953 28.8216Z" fill="#E5A443"/>
</svg>
