<svg width="629" height="754" viewBox="0 0 629 754" fill="none" xmlns="http://www.w3.org/2000/svg">
<path d="M0 0H629V754H0V0Z"/>
<path d="M247.989 410.091H256.256L264.216 425.125H264.557L272.517 410.091H280.784L268.051 432.659V445H260.722V432.659L247.989 410.091Z" fill="#0F50AA"/>
<path d="M291.024 445.511C288.376 445.511 286.087 444.949 284.155 443.824C282.234 442.688 280.751 441.108 279.706 439.085C278.661 437.051 278.138 434.693 278.138 432.011C278.138 429.307 278.661 426.943 279.706 424.92C280.751 422.886 282.234 421.307 284.155 420.182C286.087 419.045 288.376 418.477 291.024 418.477C293.672 418.477 295.956 419.045 297.876 420.182C299.808 421.307 301.297 422.886 302.342 424.92C303.388 426.943 303.911 429.307 303.911 432.011C303.911 434.693 303.388 437.051 302.342 439.085C301.297 441.108 299.808 442.688 297.876 443.824C295.956 444.949 293.672 445.511 291.024 445.511ZM291.058 439.886C292.263 439.886 293.268 439.545 294.075 438.864C294.882 438.17 295.49 437.227 295.899 436.034C296.32 434.841 296.53 433.483 296.53 431.96C296.53 430.438 296.32 429.08 295.899 427.886C295.49 426.693 294.882 425.75 294.075 425.057C293.268 424.364 292.263 424.017 291.058 424.017C289.842 424.017 288.82 424.364 287.99 425.057C287.172 425.75 286.553 426.693 286.132 427.886C285.723 429.08 285.518 430.438 285.518 431.96C285.518 433.483 285.723 434.841 286.132 436.034C286.553 437.227 287.172 438.17 287.99 438.864C288.82 439.545 289.842 439.886 291.058 439.886Z" fill="#0F50AA"/>
<path d="M325.422 433.852V418.818H332.683V445H325.712V440.244H325.439C324.848 441.778 323.865 443.011 322.49 443.943C321.126 444.875 319.462 445.341 317.496 445.341C315.746 445.341 314.206 444.943 312.876 444.148C311.547 443.352 310.507 442.222 309.757 440.756C309.018 439.29 308.643 437.534 308.632 435.489V418.818H315.893V434.193C315.905 435.739 316.32 436.96 317.138 437.858C317.956 438.756 319.053 439.205 320.428 439.205C321.303 439.205 322.121 439.006 322.882 438.608C323.643 438.199 324.257 437.597 324.723 436.801C325.2 436.006 325.433 435.023 325.422 433.852Z" fill="#0F50AA"/>
<path d="M338.491 445V418.818H345.531V423.386H345.804C346.281 421.761 347.082 420.534 348.207 419.705C349.332 418.864 350.628 418.443 352.094 418.443C352.457 418.443 352.849 418.466 353.27 418.511C353.69 418.557 354.06 418.619 354.378 418.699V425.142C354.037 425.04 353.565 424.949 352.963 424.869C352.361 424.79 351.81 424.75 351.31 424.75C350.241 424.75 349.287 424.983 348.446 425.449C347.616 425.903 346.957 426.54 346.469 427.358C345.991 428.176 345.753 429.119 345.753 430.188V445H338.491Z" fill="#0F50AA"/>
<path d="M250.034 503V468.091H257.415V496.915H272.381V503H250.034Z" fill="#0F50AA"/>
<path d="M288.962 503.511C286.314 503.511 284.024 502.949 282.092 501.824C280.172 500.688 278.689 499.108 277.643 497.085C276.598 495.051 276.075 492.693 276.075 490.011C276.075 487.307 276.598 484.943 277.643 482.92C278.689 480.886 280.172 479.307 282.092 478.182C284.024 477.045 286.314 476.477 288.962 476.477C291.609 476.477 293.893 477.045 295.814 478.182C297.746 479.307 299.234 480.886 300.28 482.92C301.325 484.943 301.848 487.307 301.848 490.011C301.848 492.693 301.325 495.051 300.28 497.085C299.234 499.108 297.746 500.688 295.814 501.824C293.893 502.949 291.609 503.511 288.962 503.511ZM288.996 497.886C290.2 497.886 291.206 497.545 292.013 496.864C292.82 496.17 293.428 495.227 293.837 494.034C294.257 492.841 294.467 491.483 294.467 489.96C294.467 488.438 294.257 487.08 293.837 485.886C293.428 484.693 292.82 483.75 292.013 483.057C291.206 482.364 290.2 482.017 288.996 482.017C287.78 482.017 286.757 482.364 285.928 483.057C285.109 483.75 284.49 484.693 284.07 485.886C283.661 487.08 283.456 488.438 283.456 489.96C283.456 491.483 283.661 492.841 284.07 494.034C284.49 495.227 285.109 496.17 285.928 496.864C286.757 497.545 287.78 497.886 288.996 497.886Z" fill="#0F50AA"/>
<path d="M318.365 513.364C316.013 513.364 313.996 513.04 312.314 512.392C310.643 511.756 309.314 510.886 308.325 509.784C307.337 508.682 306.695 507.443 306.399 506.068L313.115 505.165C313.32 505.688 313.643 506.176 314.087 506.631C314.53 507.085 315.115 507.449 315.842 507.722C316.581 508.006 317.479 508.148 318.536 508.148C320.115 508.148 321.416 507.761 322.439 506.989C323.473 506.227 323.99 504.949 323.99 503.153V498.364H323.683C323.365 499.091 322.888 499.778 322.251 500.426C321.615 501.074 320.797 501.602 319.797 502.011C318.797 502.42 317.604 502.625 316.217 502.625C314.251 502.625 312.462 502.17 310.848 501.261C309.246 500.341 307.967 498.938 307.013 497.051C306.07 495.153 305.598 492.756 305.598 489.858C305.598 486.892 306.081 484.415 307.047 482.426C308.013 480.438 309.297 478.949 310.899 477.96C312.513 476.972 314.28 476.477 316.2 476.477C317.666 476.477 318.893 476.727 319.882 477.227C320.871 477.716 321.666 478.33 322.268 479.068C322.882 479.795 323.354 480.511 323.683 481.216H323.956V476.818H331.166V503.256C331.166 505.483 330.621 507.347 329.53 508.847C328.439 510.347 326.928 511.472 324.996 512.222C323.075 512.983 320.865 513.364 318.365 513.364ZM318.518 497.17C319.689 497.17 320.678 496.881 321.484 496.301C322.303 495.71 322.928 494.869 323.359 493.778C323.803 492.676 324.024 491.358 324.024 489.824C324.024 488.29 323.808 486.96 323.376 485.835C322.945 484.699 322.32 483.818 321.501 483.193C320.683 482.568 319.689 482.256 318.518 482.256C317.325 482.256 316.32 482.58 315.501 483.227C314.683 483.864 314.064 484.75 313.643 485.886C313.223 487.023 313.013 488.335 313.013 489.824C313.013 491.335 313.223 492.642 313.643 493.744C314.075 494.835 314.695 495.682 315.501 496.284C316.32 496.875 317.325 497.17 318.518 497.17Z" fill="#0F50AA"/>
<path d="M348.774 503.511C346.126 503.511 343.837 502.949 341.905 501.824C339.984 500.688 338.501 499.108 337.456 497.085C336.411 495.051 335.888 492.693 335.888 490.011C335.888 487.307 336.411 484.943 337.456 482.92C338.501 480.886 339.984 479.307 341.905 478.182C343.837 477.045 346.126 476.477 348.774 476.477C351.422 476.477 353.706 477.045 355.626 478.182C357.558 479.307 359.047 480.886 360.092 482.92C361.138 484.943 361.661 487.307 361.661 490.011C361.661 492.693 361.138 495.051 360.092 497.085C359.047 499.108 357.558 500.688 355.626 501.824C353.706 502.949 351.422 503.511 348.774 503.511ZM348.808 497.886C350.013 497.886 351.018 497.545 351.825 496.864C352.632 496.17 353.24 495.227 353.649 494.034C354.07 492.841 354.28 491.483 354.28 489.96C354.28 488.438 354.07 487.08 353.649 485.886C353.24 484.693 352.632 483.75 351.825 483.057C351.018 482.364 350.013 482.017 348.808 482.017C347.592 482.017 346.57 482.364 345.74 483.057C344.922 483.75 344.303 484.693 343.882 485.886C343.473 487.08 343.268 488.438 343.268 489.96C343.268 491.483 343.473 492.841 343.882 494.034C344.303 495.227 344.922 496.17 345.74 496.864C346.57 497.545 347.592 497.886 348.808 497.886Z" fill="#0F50AA"/>
<path d="M268.972 536.131C268.835 534.756 268.25 533.688 267.216 532.926C266.182 532.165 264.778 531.784 263.006 531.784C261.801 531.784 260.784 531.955 259.955 532.295C259.125 532.625 258.489 533.085 258.045 533.676C257.614 534.267 257.398 534.938 257.398 535.688C257.375 536.312 257.506 536.858 257.79 537.324C258.085 537.79 258.489 538.193 259 538.534C259.511 538.864 260.102 539.153 260.773 539.403C261.443 539.642 262.159 539.847 262.92 540.017L266.057 540.767C267.58 541.108 268.977 541.562 270.25 542.131C271.523 542.699 272.625 543.398 273.557 544.227C274.489 545.057 275.21 546.034 275.722 547.159C276.244 548.284 276.511 549.574 276.523 551.028C276.511 553.165 275.966 555.017 274.886 556.585C273.818 558.142 272.273 559.352 270.25 560.216C268.239 561.068 265.812 561.494 262.972 561.494C260.153 561.494 257.699 561.062 255.608 560.199C253.528 559.335 251.903 558.057 250.733 556.364C249.574 554.659 248.966 552.551 248.909 550.04H256.051C256.131 551.21 256.466 552.188 257.057 552.972C257.659 553.744 258.46 554.33 259.46 554.727C260.472 555.114 261.614 555.307 262.886 555.307C264.136 555.307 265.222 555.125 266.142 554.761C267.074 554.398 267.795 553.892 268.307 553.244C268.818 552.597 269.074 551.852 269.074 551.011C269.074 550.227 268.841 549.568 268.375 549.034C267.92 548.5 267.25 548.045 266.364 547.67C265.489 547.295 264.415 546.955 263.142 546.648L259.341 545.693C256.398 544.977 254.074 543.858 252.369 542.335C250.665 540.812 249.818 538.761 249.83 536.182C249.818 534.068 250.381 532.222 251.517 530.642C252.665 529.062 254.239 527.83 256.239 526.943C258.239 526.057 260.511 525.614 263.057 525.614C265.648 525.614 267.909 526.057 269.841 526.943C271.784 527.83 273.295 529.062 274.375 530.642C275.455 532.222 276.011 534.051 276.045 536.131H268.972Z" fill="#0F50AA"/>
<path d="M288.612 545.864V561H281.351V526.091H288.408V539.438H288.714C289.305 537.892 290.26 536.682 291.578 535.807C292.896 534.92 294.55 534.477 296.538 534.477C298.357 534.477 299.942 534.875 301.294 535.67C302.658 536.455 303.714 537.585 304.464 539.062C305.226 540.528 305.601 542.284 305.589 544.33V561H298.328V545.625C298.339 544.011 297.93 542.756 297.101 541.858C296.283 540.96 295.135 540.511 293.658 540.511C292.669 540.511 291.794 540.722 291.033 541.142C290.283 541.562 289.692 542.176 289.26 542.983C288.84 543.778 288.624 544.739 288.612 545.864Z" fill="#0F50AA"/>
<path d="M323.134 561.511C320.486 561.511 318.196 560.949 316.264 559.824C314.344 558.688 312.861 557.108 311.815 555.085C310.77 553.051 310.247 550.693 310.247 548.011C310.247 545.307 310.77 542.943 311.815 540.92C312.861 538.886 314.344 537.307 316.264 536.182C318.196 535.045 320.486 534.477 323.134 534.477C325.781 534.477 328.065 535.045 329.986 536.182C331.918 537.307 333.406 538.886 334.452 540.92C335.497 542.943 336.02 545.307 336.02 548.011C336.02 550.693 335.497 553.051 334.452 555.085C333.406 557.108 331.918 558.688 329.986 559.824C328.065 560.949 325.781 561.511 323.134 561.511ZM323.168 555.886C324.372 555.886 325.378 555.545 326.185 554.864C326.991 554.17 327.599 553.227 328.009 552.034C328.429 550.841 328.639 549.483 328.639 547.96C328.639 546.438 328.429 545.08 328.009 543.886C327.599 542.693 326.991 541.75 326.185 541.057C325.378 540.364 324.372 540.017 323.168 540.017C321.952 540.017 320.929 540.364 320.099 541.057C319.281 541.75 318.662 542.693 318.241 543.886C317.832 545.08 317.628 546.438 317.628 547.96C317.628 549.483 317.832 550.841 318.241 552.034C318.662 553.227 319.281 554.17 320.099 554.864C320.929 555.545 321.952 555.886 323.168 555.886Z" fill="#0F50AA"/>
<path d="M357.531 549.852V534.818H364.793V561H357.821V556.244H357.548C356.957 557.778 355.974 559.011 354.599 559.943C353.236 560.875 351.571 561.341 349.605 561.341C347.855 561.341 346.315 560.943 344.986 560.148C343.656 559.352 342.616 558.222 341.866 556.756C341.128 555.29 340.753 553.534 340.741 551.489V534.818H348.003V550.193C348.014 551.739 348.429 552.96 349.247 553.858C350.065 554.756 351.162 555.205 352.537 555.205C353.412 555.205 354.23 555.006 354.991 554.608C355.753 554.199 356.366 553.597 356.832 552.801C357.31 552.006 357.543 551.023 357.531 549.852Z" fill="#0F50AA"/>
<path d="M377.862 526.091V561H370.601V526.091H377.862Z" fill="#0F50AA"/>
<path d="M393.327 561.426C391.338 561.426 389.537 560.915 387.923 559.892C386.321 558.858 385.048 557.341 384.105 555.341C383.173 553.33 382.707 550.864 382.707 547.943C382.707 544.943 383.19 542.449 384.156 540.46C385.122 538.46 386.406 536.966 388.009 535.977C389.622 534.977 391.389 534.477 393.31 534.477C394.776 534.477 395.997 534.727 396.974 535.227C397.963 535.716 398.759 536.33 399.361 537.068C399.974 537.795 400.44 538.511 400.759 539.216H400.98V526.091H408.224V561H401.065V556.807H400.759C400.418 557.534 399.935 558.256 399.31 558.972C398.696 559.676 397.895 560.261 396.906 560.727C395.929 561.193 394.736 561.426 393.327 561.426ZM395.628 555.648C396.798 555.648 397.787 555.33 398.594 554.693C399.412 554.045 400.037 553.142 400.469 551.983C400.912 550.824 401.134 549.466 401.134 547.909C401.134 546.352 400.918 545 400.486 543.852C400.054 542.705 399.429 541.818 398.611 541.193C397.793 540.568 396.798 540.256 395.628 540.256C394.435 540.256 393.429 540.58 392.611 541.227C391.793 541.875 391.173 542.773 390.753 543.92C390.332 545.068 390.122 546.398 390.122 547.909C390.122 549.432 390.332 550.778 390.753 551.949C391.185 553.108 391.804 554.017 392.611 554.676C393.429 555.324 394.435 555.648 395.628 555.648Z" fill="#0F50AA"/>
<path d="M250.034 619V584.091H257.295V597.216H257.517C257.835 596.511 258.295 595.795 258.898 595.068C259.511 594.33 260.307 593.716 261.284 593.227C262.273 592.727 263.5 592.477 264.966 592.477C266.875 592.477 268.636 592.977 270.25 593.977C271.864 594.966 273.153 596.46 274.119 598.46C275.085 600.449 275.568 602.943 275.568 605.943C275.568 608.864 275.097 611.33 274.153 613.341C273.222 615.341 271.949 616.858 270.335 617.892C268.733 618.915 266.938 619.426 264.949 619.426C263.54 619.426 262.341 619.193 261.352 618.727C260.375 618.261 259.574 617.676 258.949 616.972C258.324 616.256 257.847 615.534 257.517 614.807H257.193V619H250.034ZM257.142 605.909C257.142 607.466 257.358 608.824 257.79 609.983C258.222 611.142 258.847 612.045 259.665 612.693C260.483 613.33 261.477 613.648 262.648 613.648C263.83 613.648 264.83 613.324 265.648 612.676C266.466 612.017 267.085 611.108 267.506 609.949C267.938 608.778 268.153 607.432 268.153 605.909C268.153 604.398 267.943 603.068 267.523 601.92C267.102 600.773 266.483 599.875 265.665 599.227C264.847 598.58 263.841 598.256 262.648 598.256C261.466 598.256 260.466 598.568 259.648 599.193C258.841 599.818 258.222 600.705 257.79 601.852C257.358 603 257.142 604.352 257.142 605.909Z" fill="#0F50AA"/>
<path d="M292.345 619.511C289.652 619.511 287.334 618.966 285.391 617.875C283.459 616.773 281.97 615.216 280.925 613.205C279.879 611.182 279.357 608.79 279.357 606.028C279.357 603.335 279.879 600.972 280.925 598.938C281.97 596.903 283.442 595.318 285.339 594.182C287.249 593.045 289.487 592.477 292.055 592.477C293.783 592.477 295.391 592.756 296.879 593.312C298.379 593.858 299.686 594.682 300.8 595.784C301.925 596.886 302.8 598.273 303.425 599.943C304.05 601.602 304.362 603.545 304.362 605.773V607.767H282.254V603.267H297.527C297.527 602.222 297.3 601.295 296.845 600.489C296.391 599.682 295.76 599.051 294.953 598.597C294.158 598.131 293.232 597.898 292.175 597.898C291.072 597.898 290.095 598.153 289.243 598.665C288.402 599.165 287.743 599.841 287.266 600.693C286.788 601.534 286.544 602.472 286.533 603.506V607.784C286.533 609.08 286.771 610.199 287.249 611.142C287.737 612.085 288.425 612.812 289.311 613.324C290.197 613.835 291.249 614.091 292.464 614.091C293.271 614.091 294.01 613.977 294.68 613.75C295.351 613.523 295.925 613.182 296.402 612.727C296.879 612.273 297.243 611.716 297.493 611.057L304.209 611.5C303.868 613.114 303.169 614.523 302.112 615.727C301.067 616.92 299.714 617.852 298.055 618.523C296.408 619.182 294.504 619.511 292.345 619.511Z" fill="#0F50AA"/>
<path d="M327.472 603.864V619H320.21V584.091H327.267V597.438H327.574C328.165 595.892 329.119 594.682 330.438 593.807C331.756 592.92 333.409 592.477 335.398 592.477C337.216 592.477 338.801 592.875 340.153 593.67C341.517 594.455 342.574 595.585 343.324 597.062C344.085 598.528 344.46 600.284 344.449 602.33V619H337.188V603.625C337.199 602.011 336.79 600.756 335.96 599.858C335.142 598.96 333.994 598.511 332.517 598.511C331.528 598.511 330.653 598.722 329.892 599.142C329.142 599.562 328.551 600.176 328.119 600.983C327.699 601.778 327.483 602.739 327.472 603.864Z" fill="#0F50AA"/>
<path d="M362.095 619.511C359.402 619.511 357.084 618.966 355.141 617.875C353.209 616.773 351.72 615.216 350.675 613.205C349.629 611.182 349.107 608.79 349.107 606.028C349.107 603.335 349.629 600.972 350.675 598.938C351.72 596.903 353.192 595.318 355.089 594.182C356.999 593.045 359.237 592.477 361.805 592.477C363.533 592.477 365.141 592.756 366.629 593.312C368.129 593.858 369.436 594.682 370.55 595.784C371.675 596.886 372.55 598.273 373.175 599.943C373.8 601.602 374.112 603.545 374.112 605.773V607.767H352.004V603.267H367.277C367.277 602.222 367.05 601.295 366.595 600.489C366.141 599.682 365.51 599.051 364.703 598.597C363.908 598.131 362.982 597.898 361.925 597.898C360.822 597.898 359.845 598.153 358.993 598.665C358.152 599.165 357.493 599.841 357.016 600.693C356.538 601.534 356.294 602.472 356.283 603.506V607.784C356.283 609.08 356.521 610.199 356.999 611.142C357.487 612.085 358.175 612.812 359.061 613.324C359.947 613.835 360.999 614.091 362.214 614.091C363.021 614.091 363.76 613.977 364.43 613.75C365.101 613.523 365.675 613.182 366.152 612.727C366.629 612.273 366.993 611.716 367.243 611.057L373.959 611.5C373.618 613.114 372.919 614.523 371.862 615.727C370.817 616.92 369.464 617.852 367.805 618.523C366.158 619.182 364.254 619.511 362.095 619.511Z" fill="#0F50AA"/>
<path d="M378.851 619V592.818H385.891V597.386H386.163C386.641 595.761 387.442 594.534 388.567 593.705C389.692 592.864 390.987 592.443 392.453 592.443C392.817 592.443 393.209 592.466 393.629 592.511C394.05 592.557 394.419 592.619 394.737 592.699V599.142C394.396 599.04 393.925 598.949 393.322 598.869C392.72 598.79 392.169 598.75 391.669 598.75C390.601 598.75 389.646 598.983 388.805 599.449C387.976 599.903 387.317 600.54 386.828 601.358C386.351 602.176 386.112 603.119 386.112 604.188V619H378.851Z" fill="#0F50AA"/>
<path d="M409.205 619.511C406.511 619.511 404.193 618.966 402.25 617.875C400.318 616.773 398.83 615.216 397.784 613.205C396.739 611.182 396.216 608.79 396.216 606.028C396.216 603.335 396.739 600.972 397.784 598.938C398.83 596.903 400.301 595.318 402.199 594.182C404.108 593.045 406.347 592.477 408.915 592.477C410.642 592.477 412.25 592.756 413.739 593.312C415.239 593.858 416.545 594.682 417.659 595.784C418.784 596.886 419.659 598.273 420.284 599.943C420.909 601.602 421.222 603.545 421.222 605.773V607.767H399.114V603.267H414.386C414.386 602.222 414.159 601.295 413.705 600.489C413.25 599.682 412.619 599.051 411.812 598.597C411.017 598.131 410.091 597.898 409.034 597.898C407.932 597.898 406.955 598.153 406.102 598.665C405.261 599.165 404.602 599.841 404.125 600.693C403.648 601.534 403.403 602.472 403.392 603.506V607.784C403.392 609.08 403.631 610.199 404.108 611.142C404.597 612.085 405.284 612.812 406.17 613.324C407.057 613.835 408.108 614.091 409.324 614.091C410.131 614.091 410.869 613.977 411.54 613.75C412.21 613.523 412.784 613.182 413.261 612.727C413.739 612.273 414.102 611.716 414.352 611.057L421.068 611.5C420.727 613.114 420.028 614.523 418.972 615.727C417.926 616.92 416.574 617.852 414.915 618.523C413.267 619.182 411.364 619.511 409.205 619.511Z" fill="#0F50AA"/>
</svg>
